<svg xmlns="http://www.w3.org/2000/svg" version="1.1" viewBox="406.08 425.52000000000004 267.84 226.79999999999998" style="max-height: 500px" width="267.84" height="226.79999999999998">
<path transform="translate(551,434)" fill="#c4ad72" d="M0 0 C0 48.51 0 97.02 0 147 C-5.94 147 -11.88 147 -18 147 C-17.99887207 145.6996582 -17.99774414 144.39931641 -17.99658203 143.05957031 C-18.00028394 138.18365048 -18.04335726 133.30870245 -18.09765625 128.43310547 C-18.11570031 126.33258369 -18.12340605 124.23194436 -18.12011719 122.13134766 C-18.10486372 106.09232763 -19.33151455 94.9336783 -31 83 C-31.66 82.67 -32.32 82.34 -33 82 C-33 109.39 -33 136.78 -33 165 C-28.38 165.33 -23.76 165.66 -19 166 C-1.9408036 168.78481748 14.22965584 177.4284841 29.88793945 184.37670898 C54.05053275 195.09397357 78.87690706 204.71301224 105.28515625 196.0703125 C107.95774629 195.07026357 107.95774629 195.07026357 110.23046875 193.84375 C112 193 112 193 114.25 193.375 C114.8275 193.58125 115.405 193.7875 116 194 C112.07803229 198.36116645 108.00135061 200.94509496 102.8125 203.625 C101.75579102 204.19734375 101.75579102 204.19734375 100.67773438 204.78125 C91.39817409 209.65196942 82.95915189 211.5003427 72.5 211.375 C71.53191406 211.38660156 70.56382812 211.39820313 69.56640625 211.41015625 C51.44815799 211.33719686 36.58005099 201.20527773 22 191.5 C12.62879744 185.27000504 3.40587172 179.35647124 -7 175 C-8.16789063 174.50242187 -9.33578125 174.00484375 -10.5390625 173.4921875 C-24.15300339 168.47652507 -35.65082878 169.09636937 -51 168 C-51.495 119.49 -51.495 119.49 -52 70 C-59.82750729 67.3908309 -65.84061758 65.39566387 -73.75 64.75 C-74.554375 64.67265625 -75.35875 64.5953125 -76.1875 64.515625 C-78.12384675 64.33121102 -80.06178973 64.16367109 -82 64 C-83.22090575 68.76480596 -83.14428486 73.41467448 -83.1328125 78.296875 C-83.13376923 79.20391174 -83.13472595 80.11094849 -83.13571167 81.04547119 C-83.13639146 82.96862863 -83.13455116 84.89178839 -83.13037109 86.81494141 C-83.12509461 89.69829768 -83.1302838 92.58149279 -83.13671875 95.46484375 C-83.14013239 105.52169522 -82.91548303 115.51015616 -82.23266602 125.54467773 C-81.10872079 142.23638469 -82.84385319 159.07323541 -88 175 C-88.28617187 175.91007813 -88.57234375 176.82015625 -88.8671875 177.7578125 C-91.33111341 184.71349714 -95.36693523 190.30697207 -100 196 C-100.89332031 197.10214844 -100.89332031 197.10214844 -101.8046875 198.2265625 C-107.37683476 204.42049443 -114.41912249 207.81642939 -122 211 C-122.66 211 -123.32 211 -124 211 C-124.33 209.68 -124.66 208.36 -125 207 C-113 201 -113 201 -110.734375 200.0546875 C-108.49897494 198.6953226 -108.04018988 197.37005289 -107 195 C-106.06950021 193.74478034 -105.13136324 192.49520217 -104.1875 191.25 C-90.12248538 170.49720882 -94.93859137 143.94825072 -99.08984375 120.96484375 C-101.16739596 109.07255351 -102.36655855 97.52489005 -102.375 85.4375 C-102.37653076 84.23101807 -102.37806152 83.02453613 -102.37963867 81.78149414 C-102.29716069 75.2270288 -101.69056473 69.3362366 -100 63 C-110.5410335 65.41832078 -120.36499015 68.13340058 -128.75 75.375 C-131.86345257 77.62360464 -134.26112427 77.29324516 -138 77 C-129.06611792 66.83385833 -115.48783539 60.56725528 -102.125 59.1875 C-100.75100908 59.10576742 -99.37597783 59.03487501 -98 59 C-97.835 57.845 -97.67 56.69 -97.5 55.5 C-95.02565304 44.40931007 -88.57578816 33.34848496 -81 25 C-80.40832031 24.32839844 -79.81664062 23.65679687 -79.20703125 22.96484375 C-57.90963437 0.17443348 -30.00171263 0 0 0 Z M-63.6171875 21.140625 C-72.92820507 32.31384608 -78.92428576 44.73987036 -82 59 C-80.72769531 59.14695312 -80.72769531 59.14695312 -79.4296875 59.296875 C-69.56136903 60.5548145 -60.44941692 62.85019436 -51 66 C-51 51.15 -51 36.3 -51 21 C-45.06 21 -39.12 21 -33 21 C-33.04713135 22.65451172 -33.0942627 24.30902344 -33.14282227 26.01367188 C-33.30611311 32.17077566 -33.40918471 38.32768948 -33.49438477 44.48632812 C-33.5344764 47.14938475 -33.60086352 49.80805946 -33.67895508 52.47070312 C-33.78853762 56.30394337 -33.83925984 60.13422563 -33.87890625 63.96875 C-33.92535782 65.15239136 -33.97180939 66.33603271 -34.01966858 67.55554199 C-34.05957202 73.97097632 -34.05957202 73.97097632 -31.04196167 79.42797852 C-28.69290002 81.5458275 -28.69290002 81.5458275 -26.2308197 83.26867676 C-23.24615303 85.58505525 -21.6828921 88.26700038 -19.875 91.53125 C-19.58625 92.0159375 -19.2975 92.500625 -19 93 C-18.67 93 -18.34 93 -18 93 C-17.90713664 82.70753901 -17.83615221 72.41517843 -17.79275131 62.12238312 C-17.77191628 57.34250543 -17.7436736 52.56291533 -17.69824219 47.78320312 C-17.65463829 43.166633 -17.63083219 38.55033872 -17.62049103 33.93357849 C-17.61312569 32.17617961 -17.59874294 30.41879507 -17.57707977 28.66151428 C-17.54785162 26.19133406 -17.54405196 23.72227967 -17.54589844 21.25195312 C-17.53151733 20.53265625 -17.51713623 19.81335938 -17.50231934 19.07226562 C-17.54537423 13.71548013 -18.98198459 9.45840033 -22 5 C-35.80291878 -1.90145939 -54.80483018 11.78989215 -63.6171875 21.140625 Z"/>
</svg>